<svg height="505pt" viewBox="0 0 505.36792 505" width="505pt" xmlns="http://www.w3.org/2000/svg"><path d="m137.367188.183594h336c17.675781 0 32 14.328125 32 32v320c0 17.671875-14.324219 32-32 32h-336c-17.671876 0-32-14.328125-32-32v-320c0-17.671875 14.328124-32 32-32zm0 0" fill="#eaccca"/><path d="m.496094 412.40625 55.574218-315.140625c3.066407-17.402344 19.664063-29.023437 37.070313-25.957031l315.136719 55.574218c17.40625 3.070313 29.027344 19.667969 25.957031 37.070313l-55.574219 315.140625c-3.070312 17.402344-19.664062 29.023438-37.070312 25.953125l-315.136719-55.570313c-17.40625-3.070312-29.027344-19.667968-25.957031-37.070312zm0 0" fill="#e76e54"/><path d="m223.769531 160.34375c-67.296875-3.601562-125.859375 45.59375-133.921875 112.503906-8.0625 66.90625 37.136719 128.605469 103.359375 141.097656 7.914063 1.472657 15.949219 2.210938 24 2.207032 17.121094.015625 34.070313-3.382813 49.855469-10 4.269531-1.832032 7.53125-5.425782 8.941406-9.851563 1.410156-4.421875.828125-9.242187-1.597656-13.203125-4.082031-6.761718-12.519531-9.492187-19.789062-6.402344-24.527344 10.3125-52.230469 10.007813-76.523438-.839843-24.296875-10.851563-43.011719-31.277344-51.703125-56.421875-11.078125-33.066406-3.539063-69.53125 19.746094-95.488282 19.289062-21.453124 47.214843-33.078124 76.03125-31.648437 51.921875 4.25 91.734375 47.90625 91.199219 100v11.886719c0 8.835937-7.164063 16-16 16-8.835938 0-16-7.164063-16-16v-12.976563c.601562-35.375-26.792969-64.9375-62.109376-67.023437-19.941406-.558594-39.003906 8.195312-51.578124 23.683594-12.574219 15.484374-17.226563 35.941406-12.582032 55.339843 5.289063 22.113281 21.953125 39.734375 43.730469 46.261719 21.78125 6.523438 45.386719.960938 61.964844-14.597656 10.78125 13.054687 27.691406 19.390625 44.398437 16.640625 23.691406-4.640625 40.632813-25.621094 40.175782-49.757813v-9.457031c1.164062-69.382813-52.355469-127.453125-121.597657-131.953125zm-6.402343 159.839844c-17.671876 0-32-14.328125-32-32s14.328124-32 32-32c17.675781 0 32 14.328125 32 32s-14.324219 32-32 32zm0 0" fill="#fff"/></svg>