<?xml version="1.0" encoding="iso-8859-1"?>
<!-- Generator: Adobe Illustrator 19.0.0, SVG Export Plug-In . SVG Version: 6.00 Build 0)  -->
<svg version="1.1" id="Layer_1" xmlns="http://www.w3.org/2000/svg" xmlns:xlink="http://www.w3.org/1999/xlink" x="0px" y="0px"
	 viewBox="0 0 512 512" style="enable-background:new 0 0 512 512;" xml:space="preserve">
<circle style="fill:#0F7986;" cx="256" cy="256" r="256"/>
<path style="fill:#FFFFFF;" d="M76.928,193.196h133.374l35.148,35.147V409.48H76.928V193.196z"/>
<path style="fill:#C9CACC;" d="M102.338,239.581h117.698v2.654H102.338V239.581z M102.338,268.172L102.338,268.172h117.698v2.657
	H102.338V268.172z M102.338,273.097L102.338,273.097h117.698v2.655H102.338V273.097z M102.338,278.02L102.338,278.02h117.698v2.655
	H102.338V278.02z M102.338,282.944L102.338,282.944h117.703v2.655H102.338V282.944z M102.338,244.503L102.338,244.503h117.698v2.656
	H102.338V244.503z M102.338,249.427L102.338,249.427h117.698v2.656H102.338V249.427z M102.338,254.351L102.338,254.351h117.703
	v2.655H102.338V254.351z M102.337,259.275L102.337,259.275h90.156v2.655h-90.156V259.275z M102.337,287.867L102.337,287.867h90.156
	v2.656h-90.156V287.867z"/>
<path style="fill:#FAD24D;" d="M210.303,193.196v35.147h35.147L210.303,193.196z"/>
<path style="fill:#F7FAFA;" d="M245.45,263.488v-35.145h-35.145L245.45,263.488z"/>
<path style="fill:#C9CACC;" d="M102.338,304.838h117.698v2.655H102.338V304.838z M102.338,333.429L102.338,333.429h117.698v2.656
	H102.338V333.429z M102.338,338.353L102.338,338.353h117.698v2.656H102.338V338.353z M102.338,343.277L102.338,343.277h117.698
	v2.655H102.338V343.277z M102.338,348.2L102.338,348.2h117.703v2.655H102.338V348.2z M102.338,309.761L102.338,309.761h117.698
	v2.655H102.338V309.761z M102.338,314.684L102.338,314.684h117.698v2.655H102.338V314.684z M102.338,319.608L102.338,319.608
	h117.703v2.655H102.338V319.608z M102.337,324.531L102.337,324.531h90.156v2.655h-90.156V324.531z M102.337,353.123L102.337,353.123
	h90.156v2.656h-90.156V353.123z"/>
<path style="fill:#FFFFFF;" d="M268.332,80.185h133.376l35.147,35.147V296.47H268.332V80.185z"/>
<path style="fill:#C9CACC;" d="M293.742,126.569H411.44v2.655H293.742V126.569z M293.742,155.161L293.742,155.161H411.44v2.656
	H293.742V155.161z M293.742,160.084L293.742,160.084H411.44v2.656H293.742V160.084z M293.742,165.009L293.742,165.009H411.44v2.655
	H293.742V165.009z M293.742,169.932L293.742,169.932h117.704v2.655H293.742V169.932z M293.742,131.492L293.742,131.492H411.44v2.655
	H293.742V131.492z M293.742,136.417L293.742,136.417H411.44v2.655H293.742V136.417z M293.742,141.34L293.742,141.34h117.704v2.655
	H293.742V141.34z M293.741,146.263L293.741,146.263h90.156v2.655h-90.156V146.263z M293.741,174.855L293.741,174.855h90.156v2.656
	h-90.156V174.855z"/>
<path style="fill:#FF5B62;" d="M401.707,80.185v35.147h35.147L401.707,80.185z"/>
<path style="fill:#F7FAFA;" d="M436.854,150.477v-35.144h-35.145L436.854,150.477z"/>
<path style="fill:#C9CACC;" d="M293.742,191.826H411.44v2.654H293.742V191.826z M293.742,220.418L293.742,220.418H411.44v2.657
	H293.742V220.418z M293.742,225.342L293.742,225.342H411.44v2.655H293.742V225.342z M293.742,230.265L293.742,230.265H411.44v2.655
	H293.742V230.265z M293.742,235.189L293.742,235.189h117.704v2.655H293.742V235.189z M293.742,196.749L293.742,196.749H411.44v2.656
	H293.742V196.749z M293.742,201.672L293.742,201.672H411.44v2.656H293.742V201.672z M293.742,206.595L293.742,206.595h117.704v2.655
	H293.742V206.595z M293.741,211.52L293.741,211.52h90.156v2.655h-90.156V211.52z M293.741,240.111L293.741,240.111h90.156v2.656
	h-90.156V240.111z"/>
<path style="fill:#FAD24D;" d="M348.11,337.22h-46.001v11.5L267.8,329.227l34.309-19.492v11.5h46.001V337.22z"/>
<path style="fill:#FF5B62;" d="M165.671,166.272h46.001v11.5l34.309-19.493l-34.309-19.492v11.5h-46.001V166.272z"/>
<g>
</g>
<g>
</g>
<g>
</g>
<g>
</g>
<g>
</g>
<g>
</g>
<g>
</g>
<g>
</g>
<g>
</g>
<g>
</g>
<g>
</g>
<g>
</g>
<g>
</g>
<g>
</g>
<g>
</g>
</svg>
